<svg id="Layer_1" data-name="Layer 1" xmlns="http://www.w3.org/2000/svg" xmlns:xlink="http://www.w3.org/1999/xlink" viewBox="0 0 1920 142"><defs><style>.cls-1,.cls-3,.cls-4{fill:none;}.cls-2{fill:#00a14d;}.cls-3,.cls-4{stroke:#008143;}.cls-3{stroke-miterlimit:10;}.cls-5{fill:#231f20;}.cls-6{fill:#f8d429;}.cls-7{fill:#da2128;}.cls-8{fill:#fff;}.cls-9{fill:url(#Floral_Vines_Color);}</style><pattern id="Floral_Vines_Color" data-name="Floral Vines Color" width="190.01" height="132.71" patternUnits="userSpaceOnUse" viewBox="0 0 190.01 132.71"><rect class="cls-1" width="190.01" height="132.71"/><path class="cls-2" d="M85.06,106.39c-.14-2.17,0-5.14-8.86-9.19C77.69,100.76,79.29,105.55,85.06,106.39Z"/><path class="cls-3" d="M90.73,126.66c.2-3,4.09-6.33,5.48-6.74"/><path class="cls-3" d="M90.68,120.29c-.15-2.4,1.89-5.26,2.46-5.9"/><path class="cls-3" d="M85.58,106.2c1.28,1.14,3.78,4.41,4.21,6.17"/><path class="cls-4" d="M127.54,126.12a21.47,21.47,0,0,0-2.87,5.25"/><path class="cls-3" d="M123,120.89a9.21,9.21,0,0,1,1,5.18"/><path class="cls-3" d="M123,132.81a15.81,15.81,0,0,1,3.72,5.82"/><path class="cls-3" d="M79.21,149.56a19.32,19.32,0,0,0,1.46-1.28c.63-.63,1.23-1.28,1.81-1.94,7.38-8.47,10-19.27,7.31-34"/><path class="cls-3" d="M126.82,150.89a25.32,25.32,0,0,0,.52-2.68,24.26,24.26,0,0,0,.2-4.08,26.84,26.84,0,0,0-1.33-7.25c-2.92-9-3.52-11.56,1.48-20.31"/><path class="cls-2" d="M95.44,138c2.48.39,5.79,1.18,12.37-5.35C103.47,133.1,97.72,133.34,95.44,138Z"/><path class="cls-2" d="M81.5,144.33c1.89-1.44,4.66-3.19,2.85-11.71C82,135.83,78.69,139.89,81.5,144.33Z"/><path class="cls-2" d="M92.31,137.71c2.26-1,5.48-2,6.4-10.61C95.48,129.66,91,132.78,92.31,137.71Z"/><path class="cls-2" d="M96.81,119.53c2.5.07,5.88.45,11.64-6.85C104.19,113.65,98.51,114.61,96.81,119.53Z"/><path class="cls-2" d="M93.51,114c2.46-.48,5.88-.87,9.38-9.13C99,106.71,93.74,108.89,93.51,114Z"/><path class="cls-2" d="M89.77,111.17c1.82-1.51,4.51-3.35,2.31-11.81C89.92,102.66,86.76,106.82,89.77,111.17Z"/><path class="cls-2" d="M123,140.87c-2.31-.45-5.5-.77-8.79-9.46C117.89,133.3,122.83,135.47,123,140.87Z"/><path class="cls-2" d="M129.87,139.48c2.09-1.06,5.06-2.23,5.59-11.44C132.54,130.84,128.45,134.26,129.87,139.48Z"/><path class="cls-2" d="M122.79,131.87c-.2-2.31-.18-5.47-8.61-9.5C115.69,126.11,117.36,131.15,122.79,131.87Z"/><path class="cls-2" d="M122.73,120.5c.77-2.18,2.1-5-3.88-12.22C118.67,112.31,118.08,117.58,122.73,120.5Z"/><path class="cls-2" d="M128.29,115.83c2-1.3,4.77-2.81,4.24-12C130,106.93,126.28,110.8,128.29,115.83Z"/><path class="cls-2" d="M127.27,126.43c2.09-1.06,5.06-2.24,5.59-11.45C129.93,117.78,125.85,121.21,127.27,126.43Z"/><path class="cls-3" d="M206.66,85.42c-14.41,6.9-26.56,18.27-25.47,45.43"/><path class="cls-3" d="M188.14,100.52c-1.9,2.28-7.51,4.8-9,5.86"/><path class="cls-3" d="M186.15,102.23a14.65,14.65,0,0,0-4.32,4.6"/><path class="cls-3" d="M185.78,102.47a12.1,12.1,0,0,1-5.23-.52"/><path class="cls-3" d="M181.64,119.05c-.6,3.17-4.95,6-6.3,6.26"/><path class="cls-3" d="M181.19,124.75a11.42,11.42,0,0,1-2.68,5.94"/><path class="cls-3" d="M184.75,134.92a15.82,15.82,0,0,1-3.6-5.93"/><path class="cls-3" d="M205.2,75.62a28.51,28.51,0,0,0-20.08-1.5"/><path class="cls-3" d="M190.68,73.11a4.15,4.15,0,0,1-2.83-.75"/><path class="cls-2" d="M180.18,102.07c-1.31-1.92-2.84-4.7-12.21-4.28C171.13,100.36,175.05,104,180.18,102.07Z"/><path class="cls-2" d="M178.54,106.68c-2.32-.41-5.42-1.25-11.59,5.69C171,111.9,176.41,111.64,178.54,106.68Z"/><path class="cls-2" d="M191.73,99.83c-1.77,1.53-4.37,3.39-2.67,12.45C191.23,108.86,194.37,104.55,191.73,99.83Z"/><path class="cls-2" d="M181.48,107c-2.12,1-5.13,2.11-6,11.28C178.51,115.56,182.72,112.24,181.48,107Z"/><path class="cls-2" d="M174.73,125.62c-2.31-.46-5.4-1.37-11.72,5.43C167.09,130.68,172.49,130.53,174.73,125.62Z"/><path class="cls-2" d="M178.1,131.07c-2.35.14-5.57,0-9.93,8.18C172,137.87,177.21,136.39,178.1,131.07Z"/><path class="cls-2" d="M181.05,131.5c-1.7,1.6-4.23,3.56-2.17,12.55C180.91,140.55,183.87,136.12,181.05,131.5Z"/><path class="cls-2" d="M196.6,74.92c-2.21.81-5.32,1.62-7.06,10.67C192.81,83.17,197.33,80.26,196.6,74.92Z"/><path class="cls-2" d="M191,75.09c-2.3.49-5.5.88-8.5,9.61C186.11,82.74,191,80.47,191,75.09Z"/><path class="cls-2" d="M184.27,74.53c-2.3-.51-5.36-1.5-11.85,5.15C176.51,79.4,181.91,79.39,184.27,74.53Z"/><path class="cls-2" d="M187.26,71.9c-.29-2.3-.39-5.46-9-9.2C180,66.39,181.8,71.37,187.26,71.9Z"/><path class="cls-2" d="M196.35,71.7c-.08-2.31.12-5.47-8.07-10C189.58,65.56,191,70.68,196.35,71.7Z"/><path class="cls-2" d="M202.23,39.79c-2.28.75-5.28,2.08-12.54-4.15C193.87,35.52,199.35,35,202.23,39.79Z"/><path class="cls-3" d="M16.65,85.42C2.24,92.32-9.91,103.69-8.82,130.85"/><path class="cls-3" d="M-1.87,100.52c-1.9,2.28-7.51,4.8-9,5.86"/><path class="cls-3" d="M-3.86,102.23a14.65,14.65,0,0,0-4.32,4.6"/><path class="cls-3" d="M-4.23,102.47A12.1,12.1,0,0,1-9.46,102"/><path class="cls-3" d="M-8.37,119.05c-.6,3.17-5,6-6.3,6.26"/><path class="cls-3" d="M-8.82,124.75a11.33,11.33,0,0,1-2.69,5.94"/><path class="cls-3" d="M-5.26,134.92A15.82,15.82,0,0,1-8.86,129"/><path class="cls-3" d="M1.74,99.25A12.24,12.24,0,0,1,4,93.75"/><path class="cls-3" d="M3.26,73c-1,.34-1.8,1-1.92,1.59"/><path class="cls-3" d="M15.19,75.62a28.51,28.51,0,0,0-20.08-1.5"/><path class="cls-3" d="M8.69,73.54a4,4,0,0,1-2-1.41"/><path class="cls-3" d="M.67,73.11a4.15,4.15,0,0,1-2.83-.75"/><path class="cls-3" d="M86.88,84.71c14.59-7.33,31.48-10,53.22,8"/><path class="cls-3" d="M111.05,79.16c3.06-.09,8.33-2.7,10.12-3.24"/><path class="cls-3" d="M113.48,78.71a14.84,14.84,0,0,1,6.41-.64"/><path class="cls-3" d="M114.46,78.41A8.09,8.09,0,0,0,116.65,74"/><path class="cls-3" d="M129.65,85.35c3,1.52,8.48,0,9.49-.92"/><path class="cls-3" d="M134.78,88.62a13.67,13.67,0,0,0,6.85,1.77"/><path class="cls-3" d="M141.26,98.11c-.25-1.75-1-4.94-2.33-6.44"/><path class="cls-3" d="M107.49,81.34c-1.35-.73-4-1.89-5.94-1.74"/><path class="cls-3" d="M89.08,68.94a5.15,5.15,0,0,0,.16-2.13"/><path class="cls-3" d="M79.47,77A28.62,28.62,0,0,0,93.13,61.66"/><path class="cls-3" d="M85.17,73.14a4.25,4.25,0,0,1,2.46-.86"/><path class="cls-3" d="M84.69,73.52a2.84,2.84,0,0,0,.85-2.47"/><path class="cls-3" d="M90.49,66.92A4.58,4.58,0,0,1,92.89,65"/><path class="cls-3" d="M64.91,34.45a34.14,34.14,0,0,0,21.43,1.41"/><path class="cls-3" d="M70.91,36.27a2.75,2.75,0,0,0,2.8-.53"/><path class="cls-3" d="M80.5,36.89a5.2,5.2,0,0,1,3,.53"/><path class="cls-3" d="M151.24,40.82a3,3,0,0,1-2.36.59"/><path class="cls-3" d="M157.64,30.73A34.15,34.15,0,0,1,144.4,46.56"/><path class="cls-3" d="M154.67,36.44a3.42,3.42,0,0,0-.63,2.37"/><path class="cls-3" d="M155.19,35.41a3.61,3.61,0,0,1-2.28,1.69"/><path class="cls-3" d="M149.27,42.79c-1.2,1.14-1,1.15-1.2,1.77"/><path class="cls-3" d="M36.5,49.66c-6.64-1.07-17-3.62-24-12.37"/><path class="cls-3" d="M22,45.05a3.36,3.36,0,0,0-2.68.2"/><path class="cls-3" d="M22.94,45.54A3.65,3.65,0,0,1,21,43.44"/><path class="cls-3" d="M15.51,40.57a3.68,3.68,0,0,0-2.9-1"/><path class="cls-3" d="M31.93,48.76a2.89,2.89,0,0,0-2.37.53"/><path class="cls-3" d="M31.44,48.6c-.34,0-1.33-.42-1.22-1.13"/><path class="cls-3" d="M60.5,94.66C57,96.15,48,103.18,43.5,108.17c-4.75,5.25-12.25,13.5-12.5,18.5"/><path class="cls-3" d="M59.51,95.25a4.1,4.1,0,0,0-.41,3"/><path class="cls-3" d="M55.16,98a5.85,5.85,0,0,0-.47,3.51"/><path class="cls-3" d="M59.59,95.16a4.65,4.65,0,0,1-2.67-.09"/><path class="cls-3" d="M53.36,99.42a7,7,0,0,1-3.78.49"/><path class="cls-3" d="M42.67,109.11a5.11,5.11,0,0,1-2.75.71"/><path class="cls-3" d="M37.5,115.17A4.55,4.55,0,0,1,35.16,117"/><path class="cls-3" d="M44.09,107.61a4.51,4.51,0,0,0-.09,2.68"/><path class="cls-3" d="M39,113.36a26.08,26.08,0,0,1,0,4"/><path class="cls-3" d="M122.09,29c-1.91,2.64-3.09,3.7-5,3.91"/><path class="cls-3" d="M124.46,24.61a7.12,7.12,0,0,0-.51,4.23"/><path class="cls-3" d="M77.65,37a2,2,0,0,0,2-1.32"/><path class="cls-3" d="M62.26,25c6.17-1.77,12.91-4.94,16.9-8.12a19.32,19.32,0,0,0,1.46-1.28c.63-.63,1.24-1.28,1.81-1.93"/><path class="cls-3" d="M114.12,39.27c4.12-4.05,10.52-12.43,12.65-21a24.84,24.84,0,0,0,.52-2.68,23.2,23.2,0,0,0,.2-4.08"/><path class="cls-5" d="M41,76.91A2,2,0,0,0,38.32,78a2,2,0,0,0,1.08,2.61,2,2,0,0,0,2.66-1A2,2,0,0,0,41,76.91Z"/><path class="cls-5" d="M36,79.06a2,2,0,0,0-2.66,1,2,2,0,0,0,1.07,2.62,2,2,0,0,0,2.67-1.06A2,2,0,0,0,36,79.06Z"/><path class="cls-5" d="M40,82.92a2.05,2.05,0,0,0-2.67,1,2,2,0,0,0,1.08,2.62,2,2,0,0,0,2.66-1.06A2,2,0,0,0,40,82.92Z"/><path class="cls-5" d="M34.26,84.31a2,2,0,0,0-2.66,1.06A2,2,0,0,0,32.67,88a2,2,0,0,0,2.67-1.06A2,2,0,0,0,34.26,84.31Z"/><path class="cls-5" d="M76.23,99.14a2.07,2.07,0,1,0-2,2.15A2.07,2.07,0,0,0,76.23,99.14Z"/><path class="cls-6" d="M75,100.22a1,1,0,1,0-.94,1A1,1,0,0,0,75,100.22Z"/><path class="cls-5" d="M72.13,94.91a2.07,2.07,0,1,0-2,2.15A2.07,2.07,0,0,0,72.13,94.91Z"/><path class="cls-5" d="M66.51,95.49a2.07,2.07,0,1,0-2,2.15A2.07,2.07,0,0,0,66.51,95.49Z"/><path class="cls-5" d="M37.28,33a2.29,2.29,0,0,0,2.84-1A1.79,1.79,0,0,0,39,29.58a2.3,2.3,0,0,0-2.84,1A1.79,1.79,0,0,0,37.28,33Z"/><path class="cls-5" d="M42.72,31.22a2.3,2.3,0,0,0,2.84-1,1.8,1.8,0,0,0-1.15-2.46,2.3,2.3,0,0,0-2.84,1A1.79,1.79,0,0,0,42.72,31.22Z"/><path class="cls-5" d="M38.51,27.42a2.3,2.3,0,0,0,2.84-1A1.79,1.79,0,0,0,40.21,24a2.32,2.32,0,0,0-2.85,1A1.8,1.8,0,0,0,38.51,27.42Z"/><path class="cls-5" d="M44.57,26.47a2.28,2.28,0,0,0,2.84-1A1.79,1.79,0,0,0,46.27,23a2.31,2.31,0,0,0-2.85,1A1.79,1.79,0,0,0,44.57,26.47Z"/><path class="cls-5" d="M70.49,100.52a2.07,2.07,0,1,0-2,2.14A2.06,2.06,0,0,0,70.49,100.52Z"/><path class="cls-2" d="M-9.83,102.07c-1.31-1.92-2.84-4.7-12.21-4.28C-18.88,100.36-15,104-9.83,102.07Z"/><path class="cls-2" d="M-11.47,106.68c-2.32-.41-5.42-1.25-11.59,5.69C-19,111.9-13.6,111.64-11.47,106.68Z"/><path class="cls-2" d="M1.72,99.83C0,101.36-2.65,103.22-.95,112.28,1.22,108.86,4.36,104.55,1.72,99.83Z"/><path class="cls-2" d="M-8.53,107c-2.12,1-5.14,2.11-6,11.28C-11.5,115.56-7.29,112.24-8.53,107Z"/><path class="cls-2" d="M-15.28,125.62c-2.31-.46-5.4-1.37-11.73,5.43C-22.92,130.68-17.52,130.53-15.28,125.62Z"/><path class="cls-2" d="M-11.91,131.07c-2.35.14-5.57,0-9.93,8.18C-18,137.87-12.8,136.39-11.91,131.07Z"/><path class="cls-2" d="M-9,131.5c-1.71,1.6-4.23,3.56-2.17,12.55C-9.1,140.55-6.14,136.12-9,131.5Z"/><path class="cls-2" d="M-4.82,135.36c.13,2.31,0,5.46,8.3,9.77C2.09,141.34.59,136.25-4.82,135.36Z"/><path class="cls-2" d="M6.59,74.92c-2.21.81-5.32,1.62-7.06,10.67C2.8,83.17,7.31,80.26,6.59,74.92Z"/><path class="cls-2" d="M1,75.09c-2.3.49-5.5.88-8.5,9.61C-3.9,82.74,1,80.47,1,75.09Z"/><path class="cls-2" d="M-5.74,74.53C-8,74-11.1,73-17.6,79.68-13.5,79.4-8.1,79.39-5.74,74.53Z"/><path class="cls-2" d="M-2.75,71.9c-.29-2.3-.39-5.46-9-9.2C-10.06,66.39-8.21,71.37-2.75,71.9Z"/><path class="cls-2" d="M6.34,71.7c-.08-2.31.12-5.47-8.07-10C-.43,65.56,1,70.68,6.34,71.7Z"/><path class="cls-2" d="M117,73.74c-.78-2.28-2.13-5.26,4-12.59C121.16,65.33,121.74,70.8,117,73.74Z"/><path class="cls-2" d="M121.79,75.31c1.1-2.14,2.32-5.18,11.86-5.82C130.75,72.51,127.2,76.71,121.79,75.31Z"/><path class="cls-2" d="M108,81.68c2.36-.47,5.5-1.4,11.92,5.68C115.76,87,110.26,86.79,108,81.68Z"/><path class="cls-2" d="M120.24,77.89c2.14-1.08,4.91-2.84,13,2.24C129.14,80.87,123.8,82.2,120.24,77.89Z"/><path class="cls-2" d="M139.78,84.13c1.05-2.16,2.2-5.23,11.72-6.07C148.67,81.13,145.22,85.41,139.78,84.13Z"/><path class="cls-2" d="M142.19,90.31c1.57-1.83,3.46-4.51,12.89-2.91C151.56,89.66,147.13,92.92,142.19,90.31Z"/><path class="cls-2" d="M140.73,93c2.37-.37,5.55-1.18,11.69,6.14C148.28,98.54,142.79,98.15,140.73,93Z"/><path class="cls-2" d="M141.35,98.74c1.83,1.56,4.51,3.45,2.93,12.88C142,108.1,138.74,103.69,141.35,98.74Z"/><path class="cls-2" d="M85.36,70.46c.71-2.3,2-5.33-4.43-12.44C80.9,62.2,80.51,67.68,85.36,70.46Z"/><path class="cls-2" d="M88.67,65.84c1-2.18,2.68-5-2.67-12.94C85.4,57,84.25,62.42,88.67,65.84Z"/><path class="cls-2" d="M93.31,60.72c1.84-1.54,4.55-3.4,3.08-12.85C94.09,51.36,90.77,55.74,93.31,60.72Z"/><path class="cls-2" d="M93.64,64.79c2.07,1.22,4.73,3.13,13.12-1.46C102.7,62.35,97.45,60.71,93.64,64.79Z"/><path class="cls-2" d="M88.18,72.28c2,1.4,4.43,3.54,13.21-.26C97.43,70.67,92.35,68.56,88.18,72.28Z"/><path class="cls-2" d="M74.09,35.11c2.36-.76,5.68-1.53,7.53-10C78.13,27.35,73.32,30.08,74.09,35.11Z"/><path class="cls-2" d="M80,35c2.46-.47,5.87-.83,9.07-9C85.28,27.75,80.07,29.88,80,35Z"/><path class="cls-2" d="M87.24,35.47c2.45.48,5.72,1.41,12.65-4.84C95.52,30.89,89.77,30.9,87.24,35.47Z"/><path class="cls-2" d="M84.05,38c.31,2.16.41,5.13,9.56,8.65C91.85,43.13,89.88,38.45,84.05,38Z"/><path class="cls-2" d="M74.36,38.13c.08,2.18-.13,5.15,8.6,9.37C81.57,43.91,80.11,39.09,74.36,38.13Z"/><path class="cls-2" d="M85.06-26.32c-.14-2.17,0-5.14-8.86-9.19C77.69-31.95,79.29-27.16,85.06-26.32Z"/><path class="cls-2" d="M152.19,37.08c-2.16,1.21-5,3.11-12.48-1.33C143.77,34.75,149.05,33.09,152.19,37.08Z"/><path class="cls-2" d="M148,41.32c-2,1.48-4.6,3.73-12.79.48C139.19,40.25,144.3,37.9,148,41.32Z"/><path class="cls-2" d="M143.5,47c-1.32,2.13-2.86,5.15-12.16,6C134.51,49.89,138.43,45.69,143.5,47Z"/><path class="cls-2" d="M147.49,46.31c1.36,1.7,3.47,3.8-.19,12.89C146,55.54,143.88,50.91,147.49,46.31Z"/><path class="cls-2" d="M154.23,39.34c1.54,1.54,3.85,3.41,1,12.68C153.54,48.56,151,44.2,154.23,39.34Z"/><path class="cls-2" d="M21,42.82c-1.74-1.65-4.33-3.67-2.3-13C20.76,33.43,23.81,38,21,42.82Z"/><path class="cls-2" d="M12.26,36.53C10.18,35.33,7.19,34,7,24.41,9.87,27.45,13.91,31.18,12.26,36.53Z"/><path class="cls-2" d="M12.22,39.79c-2.28.75-5.28,2.08-12.54-4.15C3.86,35.52,9.34,35,12.22,39.79Z"/><path class="cls-2" d="M18.75,45.43c-1.82,1.57-4.54,2.35-13.62-.64C9,43.08,14.26,42.11,18.75,45.43Z"/><path class="cls-2" d="M29,49.53c-1.74,1.66-5,3.15-14.22.63C19.5,48.54,24.31,46.44,29,49.53Z"/><path class="cls-2" d="M29.52,45.92c-2.08-1.21-5.05-2.6-5.16-12.16C27.21,36.82,31.21,40.6,29.52,45.92Z"/><path class="cls-2" d="M48.92,100c-1.67-1.33-3.76-3.35-11.85-.54C40.53,100.88,45,103,48.92,100Z"/><path class="cls-2" d="M59.18,98.41c-.86,2.24-2.31,5.19,3.59,12.71C63.08,107,63.83,101.5,59.18,98.41Z"/><path class="cls-2" d="M54.69,101.92c-1.27,2-3.27,4.64,1,13.17C56.84,111.06,58.65,105.87,54.69,101.92Z"/><path class="cls-2" d="M56.37,95c-1.81-1.59-4-4-13.16-1.1C47,95.68,51.84,98.3,56.37,95Z"/><path class="cls-2" d="M39,118c-1.57,1.69-3.95,3.8-1,12.54C39.74,126.94,42.33,122.37,39,118Z"/><path class="cls-2" d="M30.62,126.91c-1.9,1.48-4.66,3.23-3.54,12.73C29.51,136.23,33,132,30.62,126.91Z"/><path class="cls-2" d="M34.79,117.05c-2-.46-4.7-1.33-11.28,4C27.24,120.88,32.14,121,34.79,117.05Z"/><path class="cls-2" d="M39.62,109.88c-2.33-.36-5.44-1.08-12.12,4.07C31.67,113.7,37.17,113.62,39.62,109.88Z"/><path class="cls-2" d="M44.07,110.78c-1.28,2-3.23,4.52-.19,13.09C45.18,119.9,47.19,114.79,44.07,110.78Z"/><path class="cls-2" d="M122,33.21c-1.72,1.58-4.27,3.52-2.31,12.52C121.73,42.25,124.74,37.85,122,33.21Z"/><path class="cls-2" d="M114.12,39.27c-2.38.3-5.66.4-9.52,9.15C108.42,46.72,113.59,44.83,114.12,39.27Z"/><path class="cls-2" d="M124.29,29.31c1.26,1.23,3.13,2.73,1.57,9.66C124.36,36.27,122.17,32.87,124.29,29.31Z"/><path class="cls-2" d="M116.38,33c-1.16,2-2.47,5-11.68,5.17C107.63,35.38,111.24,31.42,116.38,33Z"/><path class="cls-7" d="M25.89,66.68a74.52,74.52,0,0,1,1.47-10.94c5,2.5,11.13,13.62,6.91,21.45a18.41,18.41,0,0,0-2.09-4.71,15.49,15.49,0,0,0-3.09-12c.74,1.45,2.63,7.12,1.56,10.08C29.94,69.54,28.64,68.34,25.89,66.68Z"/><path class="cls-7" d="M34.94,63.23c1.46-.94,4.15-5.7,4.05-7.18a17.58,17.58,0,0,1,.91,16.37C38.15,76.23,37,76.55,35.39,77a10.5,10.5,0,0,0,1.37-6.79c1.22-1.14,2.64-5.66,2.43-7.61a20.21,20.21,0,0,1-2.87,5.14A16.3,16.3,0,0,0,34.94,63.23Z"/><path class="cls-7" d="M20.84,75.93a12.31,12.31,0,0,0,2.95,2.87,43,43,0,0,1-12.37,1.66c3.9,1.42,12,.67,14.38-.2a13.8,13.8,0,0,0,4.34,1.61c-5.52,3.78-14.83,2.48-23.85-1C10.24,77.6,17.93,75.85,20.84,75.93Z"/><path class="cls-7" d="M30.15,82.59c-.47.84-2.32,1.39-3.64,1.77-1.76,4.32-5.32,6.56-7.58,7.89,1.72-1.55,4.58-5.23,5.19-7.35a15.8,15.8,0,0,1-4.54.14C17.79,87,15.06,92.7,14.51,95.67A16.53,16.53,0,0,0,30.15,82.59Z"/><path class="cls-7" d="M78.52,79.61a79.67,79.67,0,0,1,10.6-4.32C89.4,81,82.48,92.14,73.28,92.44a19,19,0,0,0,3.19-4.27,16.28,16.28,0,0,0,9.25-8.91c-.93,1.4-5.08,6-8.29,6.57C78,84.67,78.41,82.9,78.52,79.61Z"/><path class="cls-7" d="M86.2,85.85c1.58.81,7.23.73,8.52-.11A18.56,18.56,0,0,1,80.43,95c-4.32.41-5.22-.48-6.44-1.62a11.06,11.06,0,0,0,6.82-2.29c1.65.5,6.44-.57,8.08-1.76a21.32,21.32,0,0,1-6.08.11A17.44,17.44,0,0,0,86.2,85.85Z"/><path class="cls-7" d="M67.64,79.91A12.58,12.58,0,0,0,66.54,84a43.22,43.22,0,0,1-7.75-10.09c.7,4.18,5.47,11,7.45,12.61A13.55,13.55,0,0,0,67,91.2c-6.2-2.94-9.74-11.85-11.19-21.6C60.78,71.39,66.24,77.29,67.64,79.91Z"/><path class="cls-7" d="M66.34,91.57c-1,0-2.43-1.33-3.44-2.3-4.78.67-8.6-1.33-10.94-2.65,2.27.73,7,1.36,9.25.81a16.29,16.29,0,0,1-2.43-4c-2.64-.58-9.18,0-12.13,1C51.56,92.52,60.91,93.5,66.34,91.57Z"/><path class="cls-7" d="M53.62,42.74A63,63,0,0,1,52.05,53c-5.35-2.35-11.88-12.8-7.37-20.17a16.13,16.13,0,0,0,2.23,4.43A13.26,13.26,0,0,0,50.2,48.57c-.79-1.36-2.8-6.69-1.67-9.47C49.3,40.06,50.69,41.18,53.62,42.74Z"/><path class="cls-7" d="M44,46c-1.55.88-4.42,5.36-4.32,6.75a14.86,14.86,0,0,1-1-15.39c1.87-3.58,3.14-3.89,4.82-4.34A8.92,8.92,0,0,0,42,39.4c-1.3,1.07-2.82,5.32-2.59,7.15a18.57,18.57,0,0,1,3.06-4.83A14.19,14.19,0,0,0,44,46Z"/><path class="cls-7" d="M59,34.05a12.68,12.68,0,0,0-3.14-2.7,51.24,51.24,0,0,1,13.19-1.56c-4.16-1.34-12.8-.63-15.33.18a16,16,0,0,0-4.64-1.51c5.89-3.56,15.82-2.33,25.44.91C70.31,32.48,62.11,34.12,59,34.05Z"/><path class="cls-7" d="M49.08,27.78c.49-.78,2.46-1.31,3.87-1.66C54.83,22.05,58.64,20,61,18.69c-1.83,1.46-4.89,4.93-5.53,6.92a19.7,19.7,0,0,1,4.84-.14,27,27,0,0,0,5.41-10C55.88,15.73,50.14,22.64,49.08,27.78Z"/><path class="cls-7" d="M33.23,77.89c-1.31.59-1.7,2-2,3.1C23,80.13,16.94,69.87,14.8,63.4,29,66.62,32.65,74.86,33.23,77.89Zm-4-2.25c-1.75-3-5.87-6.24-10.93-8.86,4.28,3.22,8.6,7.63,9.63,9.4C28.79,77.76,29.7,76.53,29.18,75.64Z"/><path class="cls-1" d="M18.25,66.78c4.28,3.22,8.6,7.63,9.63,9.4.91,1.58,1.82.35,1.3-.54C27.43,72.64,23.31,69.4,18.25,66.78Z"/><path class="cls-7" d="M72.13,91.88c-1.19-.85-2.64-.48-3.79-.15C65,84,71.13,73.34,75.87,68.12,80.13,82.3,74.56,89.81,72.13,91.88ZM74.6,73c-.75,5.45-2.71,11.9-3.78,13.71-1,1.62.72,1.5,1.27.58C74.34,83.44,74.77,78.14,74.6,73Z"/><path class="cls-1" d="M70.82,86.69c-1,1.62.72,1.5,1.27.58,2.25-3.83,2.68-9.13,2.51-14.29C73.85,78.43,71.89,84.88,70.82,86.69Z"/><path class="cls-7" d="M65.45,45.83c-15.11-3-19-10.78-19.66-13.63a3.82,3.82,0,0,0,2.1-2.91C56.69,30.09,63.16,39.75,65.45,45.83Zm-3.8-3.06c-4.56-3-9.17-7.19-10.26-8.85-1-1.48-2-.33-1.4.51C51.86,37.25,56.25,40.29,61.65,42.77Z"/><path class="cls-1" d="M51.39,33.92c-1-1.48-2-.33-1.4.51,1.87,2.82,6.26,5.86,11.66,8.34C57.09,39.73,52.48,35.58,51.39,33.92Z"/><path class="cls-6" d="M70.44,95.25a1,1,0,0,0-1-.93,1,1,0,1,0,1,.93Z"/><path class="cls-6" d="M69.19,101.05a1,1,0,1,0-.93,1A1,1,0,0,0,69.19,101.05Z"/><path class="cls-6" d="M40.85,84.7a1,1,0,1,0-.94,1A1,1,0,0,0,40.85,84.7Z"/><path class="cls-6" d="M34.43,86.56a1,1,0,1,0-.93,1A1,1,0,0,0,34.43,86.56Z"/><path class="cls-6" d="M36.09,81a1,1,0,1,0-.93,1A1,1,0,0,0,36.09,81Z"/><path class="cls-6" d="M41.88,78.7a1,1,0,1,0-.93,1A1,1,0,0,0,41.88,78.7Z"/><path class="cls-6" d="M39.4,30.7a1,1,0,1,0-.93,1A1,1,0,0,0,39.4,30.7Z"/><path class="cls-6" d="M39.4,25.12a1,1,0,1,0-.93,1A1,1,0,0,0,39.4,25.12Z"/><path class="cls-6" d="M46.64,24.08a1,1,0,0,0-1.94.07,1,1,0,1,0,1.94-.07Z"/><path class="cls-6" d="M45,29.05a1,1,0,0,0-1-.94,1,1,0,0,0,.07,1.94A1,1,0,0,0,45,29.05Z"/><path class="cls-6" d="M64.44,95.87a1,1,0,0,0-1-.93,1,1,0,1,0,1,.93Z"/><path class="cls-5" d="M171,16.78a2.28,2.28,0,0,1-2.84-1,1.78,1.78,0,0,1,1.15-2.45,2.3,2.3,0,0,1,2.84,1A1.8,1.8,0,0,1,171,16.78Z"/><path class="cls-5" d="M173.52,17.25a2.3,2.3,0,0,0,2.84,1,1.8,1.8,0,0,0,1.16-2.46,2.31,2.31,0,0,0-2.84-1A1.8,1.8,0,0,0,173.52,17.25Z"/><path class="cls-7" d="M160,28.2a62.29,62.29,0,0,0,1.58,10.29C167,36.13,173.48,25.68,169,18.32a16.19,16.19,0,0,1-2.22,4.42A13.29,13.29,0,0,1,163.45,34c.79-1.36,2.82-6.7,1.67-9.48C164.36,25.51,163,26.63,160,28.2Z"/><path class="cls-7" d="M169.69,31.44c1.56.88,4.42,5.36,4.33,6.76a14.88,14.88,0,0,0,1-15.4c-1.87-3.58-3.14-3.89-4.82-4.34a8.93,8.93,0,0,1,1.46,6.39c1.31,1.07,2.82,5.33,2.6,7.15a18.74,18.74,0,0,0-3.06-4.83A14,14,0,0,1,169.69,31.44Z"/><path class="cls-6" d="M171.28,14.37a1,1,0,0,0-1-.93,1,1,0,1,0,1,.93Z"/><path class="cls-6" d="M176.87,16a1,1,0,1,0-.94,1A1,1,0,0,0,176.87,16Z"/><path class="cls-3" d="M85,10.38c2-2.15,8.26-3.8,9.84-4.79"/><path class="cls-3" d="M87.08,8.92c2.28-1.47,3.8-2.17,4.61-3.51"/><path class="cls-3" d="M88.79,8.2c2.43-.44,4.51,1.55,4.51,1.55"/><path class="cls-3" d="M90.73-6c.2-3,4.09-6.33,5.48-6.74"/><path class="cls-3" d="M90.68-12.42c-.15-2.4,1.89-5.26,2.46-5.9"/><path class="cls-3" d="M85.58-26.51c1.28,1.14,3.78,4.41,4.21,6.17"/><path class="cls-3" d="M81.47,12.17a10,10,0,0,1-.45,3"/><path class="cls-3" d="M127.42,14.91a7,7,0,0,0-3.93-6.23"/><path class="cls-4" d="M129.72,7.34a21.24,21.24,0,0,0-2.11,5.57"/><path class="cls-4" d="M127.54-6.59a21.47,21.47,0,0,0-2.87,5.25"/><path class="cls-3" d="M123-11.82a9.21,9.21,0,0,1,1,5.18"/><path class="cls-3" d="M123,.1a15.81,15.81,0,0,1,3.72,5.82"/><path class="cls-3" d="M79.21,16.85a19.32,19.32,0,0,0,1.46-1.28c.63-.63,1.23-1.28,1.81-1.94,7.38-8.47,10-19.27,7.31-34"/><path class="cls-3" d="M126.82,18.18a25.32,25.32,0,0,0,.52-2.68,24.26,24.26,0,0,0,.2-4.08,26.84,26.84,0,0,0-1.33-7.25c-2.92-9-3.52-11.56,1.48-20.31"/><path class="cls-2" d="M93.7,9.63c1.4,1.81,3,4.43,13,4C103.35,11.24,99.17,7.82,93.7,9.63Z"/><path class="cls-2" d="M95.44,5.3c2.48.39,5.79,1.18,12.37-5.35C103.47.39,97.72.63,95.44,5.3Z"/><path class="cls-2" d="M81.5,11.62c1.89-1.44,4.66-3.19,2.85-11.71C82,3.12,78.69,7.18,81.5,11.62Z"/><path class="cls-2" d="M92.31,5c2.26-1,5.48-2,6.4-10.61C95.48-3,91,.07,92.31,5Z"/><path class="cls-2" d="M96.81-13.18c2.5.07,5.88.45,11.64-6.85C104.19-19.06,98.51-18.1,96.81-13.18Z"/><path class="cls-2" d="M93.51-18.74c2.46-.48,5.88-.87,9.38-9.13C99-26,93.74-23.82,93.51-18.74Z"/><path class="cls-2" d="M89.77-21.54c1.82-1.51,4.51-3.35,2.31-11.81C89.92-30,86.76-25.89,89.77-21.54Z"/><path class="cls-2" d="M123,8.16c-2.31-.45-5.5-.77-8.79-9.46C117.89.59,122.83,2.76,123,8.16Z"/><path class="cls-2" d="M129.87,6.77c2.09-1.06,5.06-2.23,5.59-11.44C132.54-1.87,128.45,1.55,129.87,6.77Z"/><path class="cls-2" d="M122.79-.84c-.2-2.31-.18-5.47-8.61-9.5C115.69-6.6,117.36-1.56,122.79-.84Z"/><path class="cls-2" d="M122.73-12.21c.77-2.18,2.1-5.05-3.88-12.22C118.67-20.4,118.08-15.12,122.73-12.21Z"/><path class="cls-2" d="M128.29-16.88c2-1.3,4.77-2.81,4.24-12C130-25.78,126.28-21.91,128.29-16.88Z"/><path class="cls-2" d="M127.27-6.28c2.09-1.06,5.06-2.24,5.59-11.45C129.93-14.93,125.85-11.5,127.27-6.28Z"/><path class="cls-5" d="M175,13.1a2.31,2.31,0,0,1-2.85-1,1.81,1.81,0,0,1,1.16-2.46,2.31,2.31,0,0,1,2.84,1A1.8,1.8,0,0,1,175,13.1Z"/><path class="cls-5" d="M168.29,12.63a2.3,2.3,0,0,1-2.84-1,1.79,1.79,0,0,1,1.16-2.45,2.3,2.3,0,0,1,2.84,1A1.8,1.8,0,0,1,168.29,12.63Z"/><path class="cls-5" d="M171,16.76a2.31,2.31,0,0,1-2.84-1,1.8,1.8,0,0,1,1.16-2.46,2.31,2.31,0,0,1,2.84,1A1.8,1.8,0,0,1,171,16.76Z"/><path class="cls-7" d="M167.87,17.66c-.45,2.05-2.7,6.65-9.53,10.19h0a37.85,37.85,0,0,1-10.12,3.42c1.58-4.2,5.16-10.1,10.12-13.62v0a17.22,17.22,0,0,1,4.27-2.18H166A3.3,3.3,0,0,0,167.87,17.66Zm-5.66,1.66a27.29,27.29,0,0,1-3.88,3.88v0A66,66,0,0,1,152,28.15a45.27,45.27,0,0,0,6.35-3.53h0a19.33,19.33,0,0,0,5.3-4.79C164.17,19,163.19,17.83,162.21,19.32ZM166,15.47h-3.44a13.63,13.63,0,0,1,3.22-.77C165.84,14.93,165.91,15.23,166,15.47Z"/><path class="cls-7" d="M158.38,4.22v0A18.46,18.46,0,0,0,148,.84a26.94,26.94,0,0,0,5.39,10,18.72,18.72,0,0,1,4.84.15c-.64-2-3.69-5.47-5.52-6.93a19.78,19.78,0,0,1,5.63,4h0a12.55,12.55,0,0,1,2.51,3.58c1.41.36,3.38.89,3.87,1.67A15.75,15.75,0,0,0,158.38,4.22Z"/><path class="cls-7" d="M158.37,11.88v0c-5.55-.67-12.38.6-19.13,2.86.31.23.64.54,1,.75h7.34l-.36,0h-7.1c4.4,2.71,11.66,4.07,14.55,4a12.5,12.5,0,0,1,3.15-2.7,32.74,32.74,0,0,0-8.11-1.32h.24a38.34,38.34,0,0,0-5.23-.33c3.5-1.11,10.12-.78,13.65-.16v0a15.58,15.58,0,0,1,1.71.37,15.84,15.84,0,0,1,4.64-1.5A16.25,16.25,0,0,0,158.37,11.88Z"/><path class="cls-6" d="M175.05,10.71a1,1,0,1,0-.93,1A1,1,0,0,0,175.05,10.71Z"/><path class="cls-6" d="M168,10.3a1,1,0,0,0-1-.93,1,1,0,0,0-.93,1A1,1,0,1,0,168,10.3Z"/><path class="cls-6" d="M171.12,15.27a1,1,0,1,0-.94,1A1,1,0,0,0,171.12,15.27Z"/><path class="cls-5" d="M173.52,17.25a2.31,2.31,0,0,0,2.84,1,1.81,1.81,0,0,0,1.16-2.46,2.3,2.3,0,0,0-2.84-1A1.8,1.8,0,0,0,173.52,17.25Z"/><path class="cls-6" d="M176.86,16a1,1,0,1,0-.93,1A1,1,0,0,0,176.86,16Z"/><path class="cls-3" d="M184.75,2.21a15.82,15.82,0,0,1-3.6-5.93"/><path class="cls-2" d="M178.1-1.64c-2.35.14-5.57,0-9.93,8.18C172,5.16,177.21,3.68,178.1-1.64Z"/><path class="cls-2" d="M181.05-1.21c-1.7,1.6-4.23,3.56-2.17,12.55C180.91,7.84,183.87,3.41,181.05-1.21Z"/><path class="cls-2" d="M185.19,2.65c.13,2.31,0,5.46,8.3,9.77C192.1,8.63,190.6,3.54,185.19,2.65Z"/><path class="cls-2" d="M-4.82,2.65c.13,2.31,0,5.46,8.3,9.77C2.09,8.63.59,3.54-4.82,2.65Z"/><path class="cls-2" d="M30.62-5.8C28.72-4.32,26-2.57,27.08,6.93,29.51,3.52,33-.73,30.62-5.8Z"/></pattern></defs><title>bgbottom1</title><polygon class="cls-8" points="1920 142 -2 144 1 -128 1920 -128 1920 142"/><polygon class="cls-9" points="1920 142 -2 144 1 -128 1920.14 -127.87 1920 142"/></svg>